<svg xmlns="http://www.w3.org/2000/svg" width="132" height="42" viewBox="0 0 132 42">
    <g fill="#FFF" fill-rule="evenodd">
        <path d="M50 17.097c-.24.382-.65.825-1.228 1.328-.578.502-1.252.992-2.022 1.471-.77.479-1.625.933-2.564 1.364-.939.43-1.89.79-2.853 1.077-.192 2.01-.626 4.115-1.3 6.316-.674 2.202-1.492 4.224-2.455 6.066-.963 1.842-2.022 3.35-3.178 4.522C33.244 40.414 32.089 41 30.933 41c-.481 0-1.12-.144-1.914-.43-.794-.288-1.564-.742-2.31-1.365a8.782 8.782 0 0 1-1.915-2.26c-.53-.886-.794-1.95-.794-3.195 0-1.244.144-2.656.433-4.235.29-1.58.686-3.17 1.192-4.774a34.196 34.196 0 0 1 1.878-4.701c.746-1.532 1.553-2.896 2.42-4.092.866-1.196 1.793-2.153 2.78-2.871.987-.718 2.01-1.077 3.07-1.077.529 0 1.046.18 1.552.538.506.36 1 .814 1.48 1.364.482.55.927 1.149 1.337 1.795.409.646.782 1.232 1.12 1.758l.216 1.651a19.85 19.85 0 0 0 3.72-.646c1.227-.335 2.828-.79 4.802-1.363zm-14.083 6.03c-.723-.144-1.084-.862-1.084-2.154 0-.527.06-1.125.18-1.795.121-.67.254-1.364.398-2.081-.674.813-1.36 1.997-2.058 3.553a44.899 44.899 0 0 0-1.878 4.989 58.995 58.995 0 0 0-1.372 5.168c-.361 1.675-.542 3.015-.542 4.02 0 1.148.24 1.723.722 1.723s1.048-.395 1.698-1.185c.65-.79 1.288-1.83 1.913-3.122A44.942 44.942 0 0 0 35.7 27.9a35.539 35.539 0 0 0 1.372-4.846c-.24.048-.47.072-.686.072h-.47z"/>
        <path d="M28.994 22.235c.048.533-.183 1.405-.693 2.616-.511 1.211-1.229 2.543-2.153 3.997a51.408 51.408 0 0 1-3.246 4.505 38.908 38.908 0 0 1-3.94 4.25c-1.386 1.285-2.772 2.338-4.158 3.162C13.418 41.588 12.117 42 10.9 42c-1.022 0-2.092-.206-3.21-.618a11.305 11.305 0 0 1-3.174-1.816 12.617 12.617 0 0 1-2.626-2.907C1.137 35.521.614 34.225.322 32.772c-.39-1.744-.426-3.755-.11-6.032.317-2.276.913-4.638 1.788-7.084a47.616 47.616 0 0 1 3.283-7.194c1.313-2.35 2.748-4.445 4.304-6.286 1.557-1.84 3.198-3.33 4.925-4.468C16.239.569 17.953 0 19.655 0c.73 0 1.593.206 2.59.618.997.411 1.958.956 2.882 1.635a11.817 11.817 0 0 1 2.371 2.289c.657.847.985 1.707.985 2.58 0 1.162-.401 2.554-1.204 4.177a28.845 28.845 0 0 1-2.918 4.687c-1.143 1.502-2.322 2.774-3.538 3.815-1.216 1.042-2.238 1.562-3.065 1.562.487-.678 1.01-1.562 1.569-2.652a53.784 53.784 0 0 0 1.642-3.524 55.9 55.9 0 0 0 1.459-3.815c.437-1.284.754-2.434.948-3.452.195-1.017.231-1.853.11-2.507-.122-.653-.475-.98-1.058-.98-1.703 0-3.466.823-5.29 2.47-1.824 1.647-3.526 3.718-5.107 6.213a47.725 47.725 0 0 0-4.085 8.102C6.803 24.125 6.06 26.825 5.72 29.32c-.34 2.495-.183 4.566.474 6.213.657 1.647 1.982 2.47 3.976 2.47 1.07 0 2.432-.557 4.086-1.67 1.653-1.115 3.38-2.484 5.18-4.106a87.579 87.579 0 0 0 5.252-5.16c1.703-1.816 3.137-3.427 4.305-4.832zM59.268 12.635c.194 0 .51.095.947.284.437.19.91.438 1.42.746.51.308.984.652 1.421 1.031.438.38.753.782.948 1.208-.389.664-.887 1.647-1.494 2.95a81.857 81.857 0 0 0-1.894 4.443 82.498 82.498 0 0 0-1.858 5.224 38.246 38.246 0 0 0-1.312 5.366 40.733 40.733 0 0 0 2.368-2.914 63.17 63.17 0 0 0 2.405-3.447 68.076 68.076 0 0 0 2.04-3.341c.607-1.066 1.032-1.93 1.275-2.594.388.047.534.51.437 1.386-.097.876-.364 1.943-.802 3.198a52.249 52.249 0 0 1-1.639 4.087 45.726 45.726 0 0 1-2.04 4.052c-.704 1.232-1.396 2.262-2.077 3.092-.68.829-1.238 1.244-1.675 1.244-.437 0-.972-.154-1.603-.462a11.964 11.964 0 0 1-1.822-1.102 9.078 9.078 0 0 1-1.493-1.35c-.413-.475-.62-.877-.62-1.209 0-.758.11-1.659.328-2.701.219-1.043.498-2.156.838-3.34.34-1.185.74-2.394 1.202-3.626.462-1.232.911-2.44 1.348-3.625-.874 1.232-1.821 2.749-2.841 4.55-1.02 1.8-1.992 3.624-2.915 5.472a97.91 97.91 0 0 0-2.404 5.154c-.68 1.587-1.117 2.783-1.312 3.589-.388 0-.837-.19-1.347-.569-.51-.379-.996-.829-1.458-1.35a9.22 9.22 0 0 1-1.165-1.635c-.316-.569-.474-1.042-.474-1.421 0-1.233.146-2.678.437-4.336a65.927 65.927 0 0 1 1.13-5.153c.46-1.777.97-3.543 1.53-5.296a94.53 94.53 0 0 1 1.602-4.655c.51-1.35.984-2.453 1.421-3.306.437-.853.777-1.279 1.02-1.279.437 0 .923.083 1.457.249.535.166 1.045.355 1.53.568.486.214.911.45 1.276.711.364.26.619.486.765.675-.292.427-.668 1.114-1.13 2.062a50.14 50.14 0 0 0-1.493 3.447 103.683 103.683 0 0 0-1.676 4.585 71.968 71.968 0 0 0-1.603 5.402 67.99 67.99 0 0 1 2.987-5.722 70.853 70.853 0 0 1 3.279-5.153c1.068-1.517 2.04-2.76 2.914-3.732.875-.971 1.482-1.457 1.822-1.457z"/>
        <path d="M62.193 9.96c-1.088-.095-1.929-.43-2.52-1.003-.592-.573-.794-.98-.604-1.219.947-.047 2.178-.131 3.693-.25 1.515-.12 3.81-.228 6.888-.323.71-1.864 1.35-3.357 1.917-4.48.568-1.123.97-1.685 1.208-1.685.378 0 .828.084 1.349.25.52.168 1.03.383 1.527.646.497.263.947.526 1.349.789.402.262.65.49.746.68-.237.24-.533.658-.888 1.255-.355.597-.746 1.374-1.172 2.33 2.604-.048 4.9-.06 6.889-.036 1.988.024 3.266.155 3.834.394.237.096.462.31.675.645.213.335.39.693.533 1.076.142.382.248.752.32 1.11.07.36.082.61.035.753-.474-.143-1.16-.274-2.06-.394-.9-.12-1.953-.203-3.16-.25a617.701 617.701 0 0 0-3.977-.144c-1.444-.048-2.9-.072-4.367-.072a192.287 192.287 0 0 0-2.095 5.735 336.974 336.974 0 0 0-2.166 6.416 183.746 183.746 0 0 0-1.988 6.487 145.02 145.02 0 0 0-1.563 5.878 41.36 41.36 0 0 0 2.557-3.046c.9-1.171 1.752-2.33 2.556-3.477a62.945 62.945 0 0 0 2.13-3.226c.616-1.003 1.042-1.816 1.279-2.437.473.096.627.61.462 1.541-.166.932-.545 2.091-1.137 3.477a58.517 58.517 0 0 1-2.166 4.48 56.722 56.722 0 0 1-2.592 4.409c-.875 1.338-1.692 2.461-2.45 3.369-.757.908-1.325 1.362-1.704 1.362-.19 0-.52-.18-.994-.538-.473-.358-.947-.824-1.42-1.397a12.757 12.757 0 0 1-1.243-1.793c-.355-.62-.509-1.17-.462-1.648.19-1.72.533-3.668 1.03-5.843a116.186 116.186 0 0 1 1.74-6.666c.663-2.27 1.373-4.528 2.13-6.774a218.272 218.272 0 0 1 2.202-6.237h-4.332c-.426 0-.781-.012-1.065-.036a15.75 15.75 0 0 1-.924-.107z"/>
        <path d="M98 17.097c-.24.382-.65.825-1.228 1.328-.578.502-1.252.992-2.022 1.471-.77.479-1.625.933-2.564 1.364-.939.43-1.89.79-2.853 1.077-.192 2.01-.626 4.115-1.3 6.316-.674 2.202-1.492 4.224-2.455 6.066-.963 1.842-2.022 3.35-3.178 4.522C81.244 40.414 80.089 41 78.933 41c-.481 0-1.12-.144-1.914-.43-.794-.288-1.564-.742-2.31-1.365a8.782 8.782 0 0 1-1.915-2.26c-.53-.886-.794-1.95-.794-3.195 0-1.244.144-2.656.433-4.235.29-1.58.686-3.17 1.192-4.774a34.196 34.196 0 0 1 1.878-4.701c.746-1.532 1.553-2.896 2.42-4.092.866-1.196 1.793-2.153 2.78-2.871.987-.718 2.01-1.077 3.07-1.077.529 0 1.046.18 1.552.538.506.36 1 .814 1.48 1.364.482.55.927 1.149 1.337 1.795.409.646.782 1.232 1.12 1.758l.216 1.651a19.85 19.85 0 0 0 3.72-.646c1.227-.335 2.828-.79 4.802-1.363zm-14.083 6.03c-.723-.144-1.084-.862-1.084-2.154 0-.527.06-1.125.18-1.795.121-.67.254-1.364.398-2.081-.674.813-1.36 1.997-2.058 3.553a44.899 44.899 0 0 0-1.878 4.989 58.995 58.995 0 0 0-1.372 5.168c-.361 1.675-.542 3.015-.542 4.02 0 1.148.24 1.723.722 1.723s1.048-.395 1.698-1.185c.65-.79 1.288-1.83 1.913-3.122A44.942 44.942 0 0 0 83.7 27.9a35.539 35.539 0 0 0 1.372-4.846c-.24.048-.47.072-.686.072h-.47z"/>
        <path d="M115 15.537c-.814.829-2.024 1.878-3.628 3.146-1.605 1.268-3.413 2.293-5.425 3.073a19.965 19.965 0 0 1-1.653 2.598c-.575.756-1.102 1.134-1.58 1.134-.432-.195-.755-.61-.97-1.244a10.651 10.651 0 0 1-.468-2.049 8.173 8.173 0 0 1-.036-2.012c.072-.61.18-.988.324-1.134.479 0 1.125-.073 1.94-.22.191-.78.275-1.475.251-2.085-.024-.61-.084-1.061-.18-1.354-.383 0-.802.147-1.257.44-.455.292-.91.67-1.365 1.133a6.999 6.999 0 0 0-1.185 1.647 5.977 5.977 0 0 0-.647 1.975c-.144.927.012 1.94.467 3.037a34.344 34.344 0 0 0 1.58 3.293 59.747 59.747 0 0 1 1.653 3.256c.503 1.073.73 2.024.683 2.853-.048.586-.276 1.33-.683 2.232-.407.903-.958 1.78-1.652 2.634a10.033 10.033 0 0 1-2.515 2.195c-.982.61-2.072.915-3.27.915-.91 0-1.736-.476-2.478-1.427-.743-.951-1.353-2.073-1.832-3.366a17.63 17.63 0 0 1-.97-3.95c-.168-1.342-.132-2.379.107-3.11.48 1.365 1.114 2.536 1.904 3.512.79.975 1.581 1.756 2.371 2.341.79.585 1.51.963 2.156 1.134.647.17 1.09.134 1.33-.11.382-.439.359-1.195-.073-2.268a77.48 77.48 0 0 0-1.652-3.768 58.844 58.844 0 0 1-1.904-4.61c-.599-1.634-.874-3.207-.827-4.72.048-1.61.372-3.012.97-4.207.6-1.195 1.282-2.195 2.048-3 .767-.805 1.545-1.414 2.335-1.829.79-.415 1.425-.622 1.904-.622.48 0 1.126.207 1.94.622a17.04 17.04 0 0 1 2.407 1.5c.79.585 1.461 1.183 2.012 1.793.551.61.827 1.11.827 1.5 0 .292-.12.805-.36 1.536a69.589 69.589 0 0 0 2.407-.622c.79-.22 1.521-.439 2.192-.658.67-.22 1.257-.427 1.76-.622.503-.195.85-.366 1.042-.512z"/>
        <path d="M132 17.097c-.24.382-.65.825-1.228 1.328-.578.502-1.252.992-2.022 1.471-.77.479-1.625.933-2.564 1.364-.939.43-1.89.79-2.853 1.077-.192 2.01-.626 4.115-1.3 6.316-.674 2.202-1.492 4.224-2.455 6.066-.963 1.842-2.022 3.35-3.178 4.522-1.156 1.173-2.311 1.759-3.467 1.759-.481 0-1.12-.144-1.914-.43-.794-.288-1.564-.742-2.31-1.365a8.782 8.782 0 0 1-1.915-2.26c-.53-.886-.794-1.95-.794-3.195 0-1.244.144-2.656.433-4.235.29-1.58.686-3.17 1.192-4.774a34.196 34.196 0 0 1 1.878-4.701c.746-1.532 1.553-2.896 2.42-4.092.866-1.196 1.793-2.153 2.78-2.871.987-.718 2.01-1.077 3.07-1.077.529 0 1.046.18 1.552.538.506.36 1 .814 1.48 1.364.482.55.927 1.149 1.337 1.795.409.646.782 1.232 1.12 1.758l.216 1.651a19.85 19.85 0 0 0 3.72-.646c1.227-.335 2.828-.79 4.802-1.363zm-14.083 6.03c-.723-.144-1.084-.862-1.084-2.154 0-.527.06-1.125.18-1.795.121-.67.254-1.364.398-2.081-.674.813-1.36 1.997-2.058 3.553a44.899 44.899 0 0 0-1.878 4.989 58.995 58.995 0 0 0-1.372 5.168c-.361 1.675-.542 3.015-.542 4.02 0 1.148.24 1.723.722 1.723s1.048-.395 1.698-1.185c.65-.79 1.288-1.83 1.913-3.122A44.943 44.943 0 0 0 117.7 27.9a35.539 35.539 0 0 0 1.372-4.846c-.24.048-.47.072-.686.072h-.47z"/>
    </g>
</svg>
